<svg xmlns="http://www.w3.org/2000/svg" viewBox="0 0 80 80">
  <!-- Top-down crab, symmetric, flat folk-print -->
  <!-- Back legs -->
  <g fill="none" stroke="#2E2218" stroke-width="2.6" stroke-linecap="round">
    <path d="M26,46 Q14,50 8,46"/>
    <path d="M28,54 Q16,60 10,58"/>
    <path d="M28,60 Q18,68 12,68"/>
    <path d="M54,46 Q66,50 72,46"/>
    <path d="M52,54 Q64,60 70,58"/>
    <path d="M52,60 Q62,68 68,68"/>
  </g>
  <!-- Claws -->
  <g fill="#D14B2A" stroke="#2E2218" stroke-width="2.4" stroke-linejoin="round">
    <path d="M28,40 Q16,34 12,24 Q6,26 8,18 Q16,16 18,24 Q24,32 32,38 Z"/>
    <path d="M52,40 Q64,34 68,24 Q74,26 72,18 Q64,16 62,24 Q56,32 48,38 Z"/>
  </g>
  <!-- Body shell -->
  <path d="M24,48 Q22,34 40,32 Q58,34 56,48 Q54,58 40,58 Q26,58 24,48 Z" fill="#D14B2A" stroke="#2E2218" stroke-width="2.6" stroke-linejoin="round"/>
  <!-- Shadow edge -->
  <path d="M26,52 Q40,60 54,52 Q52,57 40,57 Q28,57 26,52 Z" fill="#A33218"/>
  <!-- Eyes -->
  <g fill="#A33218" stroke="#2E2218" stroke-width="2">
    <circle cx="33" cy="36" r="3"/>
    <circle cx="47" cy="36" r="3"/>
  </g>
</svg>
