<svg xmlns="http://www.w3.org/2000/svg" viewBox="0 0 80 80" fill="none" stroke="currentColor" stroke-linecap="round" stroke-linejoin="round">
  <!-- Fish — side view -->
  <!-- Main body -->
  <path d="M16,40 C16,28 28,18 46,18 C60,18 68,28 68,40 C68,52 60,62 46,62 C28,62 16,52 16,40 Z" stroke-width="3"/>
  <!-- Tail fin -->
  <path d="M16,40 Q4,28 6,22 Q14,32 16,40" stroke-width="2.5" fill="none"/>
  <path d="M16,40 Q4,52 6,58 Q14,48 16,40" stroke-width="2.5" fill="none"/>
  <!-- Dorsal fin (top) -->
  <path d="M36,18 Q40,8 46,10 Q50,12 48,18" stroke-width="2.5"/>
  <!-- Pectoral fin -->
  <path d="M42,36 Q50,28 54,32 Q52,38 42,36" stroke-width="2"/>
  <!-- Eye -->
  <circle cx="56" cy="34" r="5" stroke-width="2.5"/>
  <circle cx="57" cy="33" r="2" fill="currentColor" stroke="none"/>
  <!-- Mouth -->
  <path d="M68,40 Q72,38 72,40 Q72,42 68,42" stroke-width="2"/>
  <!-- Scale lines -->
  <path d="M44,26 Q46,30 42,32" stroke-width="1.5" opacity="0.5"/>
  <path d="M38,28 Q40,32 36,34" stroke-width="1.5" opacity="0.5"/>
  <path d="M48,34 Q50,38 46,40" stroke-width="1.5" opacity="0.5"/>
  <path d="M42,38 Q44,42 40,44" stroke-width="1.5" opacity="0.5"/>
  <!-- Lateral line -->
  <path d="M20,40 Q40,38 62,40" stroke-width="1.5" stroke-dasharray="3,3" opacity="0.5"/>
</svg>
