<svg xmlns="http://www.w3.org/2000/svg" viewBox="0 0 64 64" fill="currentColor" stroke="currentColor" stroke-linecap="round" stroke-linejoin="round">
  <!-- Back card (rotated left) — filled -->
  <g transform="rotate(-18,20,36)">
    <rect x="8" y="18" width="24" height="34" rx="3" fill="currentColor" stroke="none"/>
    <rect x="10" y="20" width="20" height="30" rx="2" fill="none" stroke-width="1" stroke="white" opacity="0.25"/>
  </g>
  <!-- Front card — filled with lighter inset detail -->
  <rect x="20" y="12" width="26" height="38" rx="3" fill="currentColor" stroke="none"/>
  <!-- Card face inset -->
  <rect x="23" y="15" width="20" height="32" rx="2" fill="none" stroke="white" stroke-width="1" opacity="0.3"/>
  <!-- Spade suit in center -->
  <path d="M33,22 C33,22 27,28 27,31 C27,33.5 29,34.5 31,33.5 C30.5,35 30,36 28,37 L38,37 C36,36 35.5,35 35,33.5 C37,34.5 39,33.5 39,31 C39,28 33,22 33,22 Z" fill="white" stroke="none" opacity="0.8"/>
  <!-- Corner pip top-left -->
  <text x="24" y="22" font-size="6" fill="white" opacity="0.7" font-family="serif">A</text>
</svg>
